
<svg xmlns="http://www.w3.org/2000/svg" version="1.1" x="0" y="0" viewBox="0 0 511 511" xml:space="preserve" width="100" height="100"><style>.s0{vector-effect:non-scaling-stroke;}</style><defs><polygon fill="khaki" stroke="black" vector-effect="non-scaling-stroke"/></defs><rect x="0" y="0" width="511" height="511" fill="none"/><path d="M503.5 160h-64.5v-0.5c0-13-10.5-23.5-23.5-23.5s-23.5 10.5-23.5 23.5v0.5h-64.5c-4.1 0-7.5 3.4-7.5 7.5s3.4 7.5 7.5 7.5h56.5v8.5c0 0.2 0 0.3 0 0.5h-48.4c0 0 0 0 0 0h-160.2c0 0 0 0 0 0h-48.4c0-0.2 0-0.3 0-0.5v-8.5h56.5c4.1 0 7.5-3.4 7.5-7.5s-3.4-7.5-7.5-7.5h-64.5v-0.5c0-13-10.5-23.5-23.5-23.5s-23.5 10.5-23.5 23.5v0.5h-64.5c-4.1 0-7.5 3.4-7.5 7.5s3.4 7.5 7.5 7.5h56.5v8.5c0 17.4 14.1 31.5 31.5 31.5 11.7 0 22-6.5 27.4-16h47.2l7 21c5.4 16.1 20.4 27 37.5 27h33.4v17h-40.5c-17.4 0-31.5 14.1-31.5 31.5v48c0 17.4 14.1 31.5 31.5 31.5h96c17.4 0 31.5-14.1 31.5-31.5v-48c0-17.4-14.1-31.5-31.5-31.5h-40.5v-17h33.4c17 0 32.1-10.9 37.5-27l7-21h47.2c5.4 9.5 15.7 16 27.4 16 17.4 0 31.5-14.1 31.5-31.5v-8.5h56.5c4.1 0 7.5-3.4 7.5-7.5s-3.4-7.5-7.5-7.5ZM87 159.5c0-4.7 3.8-8.5 8.5-8.5s8.5 3.8 8.5 8.5v0.5h-17v-0.5ZM95.5 200c-9.1 0-16.5-7.4-16.5-16.5v-8.5h33v8.5c0 9.1-7.4 16.5-16.5 16.5ZM320 295.5v48c0 9.1-7.4 16.5-16.5 16.5h-96c-9.1 0-16.5-7.4-16.5-16.5v-48c0-9.1 7.4-16.5 16.5-16.5h96c9.1 0 16.5 7.4 16.5 16.5ZM319.7 215.2c-3.3 10-12.7 16.8-23.2 16.8h-81.9c-10.6 0-19.9-6.7-23.2-16.8l-5.5-16.2h139.2l-5.4 16.2ZM407 159.5c0-4.7 3.8-8.5 8.5-8.5s8.5 3.8 8.5 8.5v0.5h-17v-0.5ZM432 183.5c0 9.1-7.4 16.5-16.5 16.5s-16.5-7.4-16.5-16.5v-8.5h33v8.5ZM231.5 288c-17.4 0-31.5 14.1-31.5 31.5s14.1 31.5 31.5 31.5 31.5-14.1 31.5-31.5 -14.1-31.5-31.5-31.5ZM231.5 336c-9.1 0-16.5-7.4-16.5-16.5s7.4-16.5 16.5-16.5 16.5 7.4 16.5 16.5 -7.4 16.5-16.5 16.5ZM287.5 303h8c4.1 0 7.5-3.4 7.5-7.5s-3.4-7.5-7.5-7.5h-8c-4.1 0-7.5 3.4-7.5 7.5s3.4 7.5 7.5 7.5ZM231.5 312c-2 0-3.9 0.8-5.3 2.2 -1.4 1.4-2.2 3.3-2.2 5.3s0.8 3.9 2.2 5.3c1.4 1.4 3.3 2.2 5.3 2.2 2 0 3.9-0.8 5.3-2.2 1.4-1.4 2.2-3.3 2.2-5.3s-0.8-3.9-2.2-5.3c-1.4-1.4-3.3-2.2-5.3-2.2Z"/><path d="M3.8 0l-1.2-2.5v1.3h-1.2v-1.2h-0.7v4.6h0.7v-0.9h1.3v1.3Z" stroke="black" transform="matrix(0.113189 13.762 -19.8066 0.0786459 256.107 357.497)" vector-effect="non-scaling-stroke"/></svg>